<svg width="729" height="49" viewBox="0 0 729 49" fill="none" xmlns="http://www.w3.org/2000/svg">
<path d="M9.168 0.119997H14.4L22.704 39H17.568L15.792 29.208H7.872L6 39H0.912L9.168 0.119997ZM15.072 25.32L11.808 7.8L8.592 25.32H15.072ZM33.801 39.384C31.625 39.384 29.945 38.952 28.761 38.088C27.577 37.192 26.761 35.96 26.313 34.392C25.897 32.792 25.689 30.776 25.689 28.344V21.96C25.689 19.464 25.897 17.416 26.313 15.816C26.761 14.216 27.577 13 28.761 12.168C29.945 11.304 31.625 10.872 33.801 10.872C35.785 10.872 37.321 11.192 38.409 11.832C39.529 12.472 40.297 13.432 40.713 14.712C41.161 15.96 41.385 17.592 41.385 19.608V21.24H36.729V19.56C36.729 17.736 36.521 16.472 36.105 15.768C35.721 15.032 34.969 14.664 33.849 14.664C32.985 14.664 32.345 14.856 31.929 15.24C31.513 15.624 31.225 16.248 31.065 17.112C30.905 17.976 30.825 19.24 30.825 20.904V29.64C30.825 31.24 30.921 32.472 31.113 33.336C31.305 34.168 31.609 34.76 32.025 35.112C32.473 35.432 33.097 35.592 33.897 35.592C35.081 35.592 35.849 35.208 36.201 34.44C36.553 33.64 36.729 32.424 36.729 30.792V28.536H41.385V30.456C41.385 33.464 40.825 35.704 39.705 37.176C38.617 38.648 36.649 39.384 33.801 39.384ZM49.0714 15.096H43.8874V11.256H59.4394V15.096H54.2074V39H49.0714V15.096ZM62.5451 11.256H67.6811V13.464C69.1851 11.736 70.9451 10.872 72.9611 10.872C75.4891 10.872 77.1691 11.96 78.0011 14.136C78.8651 16.28 79.2971 18.664 79.2971 21.288V28.008C79.2971 31.4 78.7691 34.152 77.7131 36.264C76.6891 38.344 74.9131 39.384 72.3851 39.384C70.7531 39.384 69.1851 38.568 67.6811 36.936V48.12H62.5451V11.256ZM71.3771 35.352C72.5611 35.352 73.3131 34.76 73.6331 33.576C73.9851 32.36 74.1611 30.504 74.1611 28.008V21.288C74.1611 19.24 73.9691 17.672 73.5851 16.584C73.2011 15.464 72.4011 14.904 71.1851 14.904C70.0011 14.904 68.8331 15.384 67.6811 16.344V34.104C68.8011 34.936 70.0331 35.352 71.3771 35.352ZM91.599 39.384C88.655 39.384 86.559 38.52 85.311 36.792C84.095 35.032 83.487 32.488 83.487 29.16V21.096C83.487 17.768 84.095 15.24 85.311 13.512C86.559 11.752 88.655 10.872 91.599 10.872C94.511 10.872 96.575 11.752 97.791 13.512C99.039 15.24 99.663 17.768 99.663 21.096V29.16C99.663 32.488 99.039 35.032 97.791 36.792C96.575 38.52 94.511 39.384 91.599 39.384ZM91.599 35.592C92.527 35.592 93.199 35.32 93.615 34.776C94.031 34.232 94.287 33.56 94.383 32.76C94.479 31.96 94.527 30.872 94.527 29.496V20.808C94.527 19.432 94.479 18.344 94.383 17.544C94.287 16.712 94.031 16.024 93.615 15.48C93.199 14.936 92.527 14.664 91.599 14.664C90.671 14.664 89.983 14.936 89.535 15.48C89.119 16.024 88.863 16.712 88.767 17.544C88.671 18.344 88.623 19.432 88.623 20.808V29.496C88.623 30.872 88.671 31.96 88.767 32.76C88.863 33.56 89.119 34.232 89.535 34.776C89.983 35.32 90.671 35.592 91.599 35.592ZM104.358 11.256H109.494V22.92H116.07V11.256H121.206V39H116.07V26.664H109.494V39H104.358V11.256ZM134.021 39.384C131.077 39.384 128.981 38.52 127.733 36.792C126.517 35.032 125.909 32.488 125.909 29.16V21.096C125.909 17.768 126.517 15.24 127.733 13.512C128.981 11.752 131.077 10.872 134.021 10.872C136.933 10.872 138.997 11.752 140.213 13.512C141.461 15.24 142.085 17.768 142.085 21.096V29.16C142.085 32.488 141.461 35.032 140.213 36.792C138.997 38.52 136.933 39.384 134.021 39.384ZM134.021 35.592C134.949 35.592 135.621 35.32 136.037 34.776C136.453 34.232 136.709 33.56 136.805 32.76C136.901 31.96 136.949 30.872 136.949 29.496V20.808C136.949 19.432 136.901 18.344 136.805 17.544C136.709 16.712 136.453 16.024 136.037 15.48C135.621 14.936 134.949 14.664 134.021 14.664C133.093 14.664 132.405 14.936 131.957 15.48C131.541 16.024 131.285 16.712 131.189 17.544C131.093 18.344 131.045 19.432 131.045 20.808V29.496C131.045 30.872 131.093 31.96 131.189 32.76C131.285 33.56 131.541 34.232 131.957 34.776C132.405 35.32 133.093 35.592 134.021 35.592ZM146.924 11.256H150.716L156.859 28.296L163.052 11.256H166.844L167.132 39H162.812V22.44L157.676 36.264H156.092L150.956 22.536V39H146.636L146.924 11.256ZM172.186 11.256H176.506V29.928L184.858 11.256H188.89V39H184.666V20.184L176.362 39H172.186V11.256ZM197.243 27.24C194.715 26.28 193.451 23.736 193.451 19.608C193.451 17.624 193.787 16.024 194.459 14.808C195.163 13.592 196.299 12.696 197.867 12.12C199.467 11.544 201.595 11.256 204.251 11.256H209.627V39H204.539V28.056C203.995 28.056 203.179 28.024 202.091 27.96L197.531 39H192.011L197.243 27.24ZM204.539 25.08V14.184H204.011C201.771 14.216 200.219 14.632 199.355 15.432C198.491 16.232 198.059 17.624 198.059 19.608C198.059 21.496 198.475 22.872 199.307 23.736C200.171 24.6 201.723 25.048 203.963 25.08H204.539ZM214.17 43.08C215.034 42.792 215.706 42.28 216.186 41.544C216.698 40.84 216.954 39.992 216.954 39H214.218V33.48H219.498V38.904C219.498 40.6 219.13 41.944 218.394 42.936C217.658 43.96 216.522 44.744 214.986 45.288L214.17 43.08ZM242.444 39.384C240.3 39.384 238.636 38.984 237.452 38.184C236.268 37.352 235.436 36.136 234.956 34.536C234.476 32.936 234.236 30.856 234.236 28.296V21.96C234.236 18.12 234.828 15.32 236.012 13.56C237.228 11.768 239.372 10.872 242.444 10.872C244.684 10.872 246.364 11.336 247.484 12.264C248.636 13.192 249.388 14.504 249.74 16.2C250.124 17.864 250.316 20.12 250.316 22.968V25.224H239.372V30.792C239.372 32.488 239.612 33.72 240.092 34.488C240.604 35.224 241.404 35.592 242.492 35.592C243.58 35.592 244.316 35.224 244.7 34.488C245.084 33.72 245.276 32.568 245.276 31.032V29.352H250.268V30.408C250.268 33.32 249.644 35.544 248.396 37.08C247.148 38.616 245.164 39.384 242.444 39.384ZM245.276 22.44V19.944C245.276 18.056 245.084 16.712 244.7 15.912C244.348 15.08 243.58 14.664 242.396 14.664C241.564 14.664 240.924 14.856 240.476 15.24C240.06 15.624 239.772 16.264 239.612 17.16C239.452 18.024 239.372 19.288 239.372 20.952V22.44H245.276ZM262.647 39.384C260.503 39.384 258.839 38.984 257.655 38.184C256.471 37.352 255.639 36.136 255.159 34.536C254.679 32.936 254.439 30.856 254.439 28.296V21.96C254.439 18.12 255.031 15.32 256.215 13.56C257.431 11.768 259.575 10.872 262.647 10.872C264.887 10.872 266.567 11.336 267.687 12.264C268.839 13.192 269.591 14.504 269.943 16.2C270.327 17.864 270.519 20.12 270.519 22.968V25.224H259.575V30.792C259.575 32.488 259.815 33.72 260.295 34.488C260.807 35.224 261.607 35.592 262.695 35.592C263.783 35.592 264.519 35.224 264.903 34.488C265.287 33.72 265.479 32.568 265.479 31.032V29.352H270.471V30.408C270.471 33.32 269.847 35.544 268.599 37.08C267.351 38.616 265.367 39.384 262.647 39.384ZM265.479 22.44V19.944C265.479 18.056 265.287 16.712 264.903 15.912C264.551 15.08 263.783 14.664 262.599 14.664C261.767 14.664 261.127 14.856 260.679 15.24C260.263 15.624 259.975 16.264 259.815 17.16C259.655 18.024 259.575 19.288 259.575 20.952V22.44H265.479ZM293.723 39.384C291.547 39.384 289.867 38.952 288.683 38.088C287.499 37.192 286.683 35.96 286.235 34.392C285.819 32.792 285.611 30.776 285.611 28.344V21.96C285.611 19.464 285.819 17.416 286.235 15.816C286.683 14.216 287.499 13 288.683 12.168C289.867 11.304 291.547 10.872 293.723 10.872C295.707 10.872 297.243 11.192 298.331 11.832C299.451 12.472 300.219 13.432 300.635 14.712C301.083 15.96 301.307 17.592 301.307 19.608V21.24H296.651V19.56C296.651 17.736 296.443 16.472 296.027 15.768C295.643 15.032 294.891 14.664 293.771 14.664C292.907 14.664 292.267 14.856 291.851 15.24C291.435 15.624 291.147 16.248 290.987 17.112C290.827 17.976 290.747 19.24 290.747 20.904V29.64C290.747 31.24 290.843 32.472 291.035 33.336C291.227 34.168 291.531 34.76 291.947 35.112C292.395 35.432 293.019 35.592 293.819 35.592C295.003 35.592 295.771 35.208 296.123 34.44C296.475 33.64 296.651 32.424 296.651 30.792V28.536H301.307V30.456C301.307 33.464 300.747 35.704 299.627 37.176C298.539 38.648 296.571 39.384 293.723 39.384ZM305.873 11.256H313.649C316.305 11.256 318.209 11.896 319.361 13.176C320.545 14.456 321.137 16.104 321.137 18.12C321.137 19.592 320.865 20.824 320.321 21.816C319.777 22.776 318.833 23.464 317.489 23.88C319.057 24.2 320.161 25 320.801 26.28C321.473 27.56 321.809 29.112 321.809 30.936C321.809 33.56 321.217 35.56 320.033 36.936C318.849 38.312 316.801 39 313.889 39H305.873V11.256ZM313.409 22.44C314.465 22.44 315.265 22.136 315.809 21.528C316.353 20.92 316.625 19.912 316.625 18.504C316.625 17.256 316.305 16.36 315.665 15.816C315.025 15.272 314.097 15 312.881 15H310.913V22.44H313.409ZM312.737 35.112C314.017 35.112 315.009 34.808 315.713 34.2C316.417 33.592 316.769 32.44 316.769 30.744C316.769 29.368 316.609 28.36 316.289 27.72C315.969 27.048 315.553 26.616 315.041 26.424C314.529 26.232 313.841 26.136 312.977 26.136H310.913V35.112H312.737ZM328.915 27.24C326.387 26.28 325.123 23.736 325.123 19.608C325.123 17.624 325.459 16.024 326.131 14.808C326.835 13.592 327.971 12.696 329.539 12.12C331.139 11.544 333.267 11.256 335.923 11.256H341.299V39H336.211V28.056C335.667 28.056 334.851 28.024 333.763 27.96L329.203 39H323.683L328.915 27.24ZM336.211 25.08V14.184H335.683C333.443 14.216 331.891 14.632 331.027 15.432C330.163 16.232 329.731 17.624 329.731 19.608C329.731 21.496 330.147 22.872 330.979 23.736C331.843 24.6 333.395 25.048 335.635 25.08H336.211ZM353.042 39.48C350.514 39.48 348.642 38.76 347.426 37.32C346.242 35.848 345.65 33.576 345.65 30.504H350.018C350.018 32.36 350.274 33.72 350.786 34.584C351.33 35.416 352.114 35.832 353.138 35.832C354.29 35.832 355.026 35.416 355.346 34.584C355.698 33.752 355.874 32.456 355.874 30.696C355.874 29.48 355.698 28.584 355.346 28.008C355.026 27.432 354.482 27.048 353.714 26.856C352.946 26.632 351.794 26.52 350.258 26.52V22.872C352.434 22.872 353.906 22.552 354.674 21.912C355.474 21.272 355.874 20.152 355.874 18.552C355.874 17.24 355.602 16.264 355.058 15.624C354.514 14.984 353.778 14.664 352.85 14.664C351.794 14.664 350.994 15 350.45 15.672C349.938 16.312 349.682 17.496 349.682 19.224H345.314C345.314 16.248 345.97 14.12 347.282 12.84C348.626 11.528 350.546 10.872 353.042 10.872C355.442 10.872 357.25 11.592 358.466 13.032C359.714 14.472 360.338 16.216 360.338 18.264C360.338 20.44 359.874 22.008 358.946 22.968C358.018 23.928 356.93 24.472 355.682 24.6C356.61 24.792 357.394 25.064 358.034 25.416C358.674 25.736 359.218 26.376 359.666 27.336C360.146 28.264 360.386 29.624 360.386 31.416C360.386 34.072 359.778 36.088 358.562 37.464C357.346 38.808 355.506 39.48 353.042 39.48ZM364.514 11.256H369.65V22.728H370.466C373.122 22.76 375.186 23.016 376.658 23.496C378.13 23.944 379.202 24.744 379.874 25.896C380.578 27.048 380.93 28.696 380.93 30.84C380.93 32.888 380.578 34.504 379.874 35.688C379.17 36.84 378.018 37.688 376.418 38.232C374.85 38.744 372.69 39 369.938 39H364.514V11.256ZM369.938 35.976C371.602 35.976 372.882 35.832 373.778 35.544C374.706 35.256 375.362 34.744 375.746 34.008C376.13 33.272 376.322 32.2 376.322 30.792C376.322 29.512 376.146 28.52 375.794 27.816C375.442 27.112 374.834 26.6 373.97 26.28C373.106 25.96 371.842 25.784 370.178 25.752H369.65V35.976H369.938ZM402.989 39.384C400.813 39.384 399.133 38.952 397.949 38.088C396.765 37.192 395.949 35.96 395.501 34.392C395.085 32.792 394.877 30.776 394.877 28.344V21.96C394.877 19.464 395.085 17.416 395.501 15.816C395.949 14.216 396.765 13 397.949 12.168C399.133 11.304 400.813 10.872 402.989 10.872C404.973 10.872 406.509 11.192 407.597 11.832C408.717 12.472 409.485 13.432 409.901 14.712C410.349 15.96 410.573 17.592 410.573 19.608V21.24H405.917V19.56C405.917 17.736 405.709 16.472 405.293 15.768C404.909 15.032 404.157 14.664 403.037 14.664C402.173 14.664 401.533 14.856 401.117 15.24C400.701 15.624 400.413 16.248 400.253 17.112C400.093 17.976 400.013 19.24 400.013 20.904V29.64C400.013 31.24 400.109 32.472 400.301 33.336C400.493 34.168 400.797 34.76 401.213 35.112C401.661 35.432 402.285 35.592 403.085 35.592C404.269 35.592 405.037 35.208 405.389 34.44C405.741 33.64 405.917 32.424 405.917 30.792V28.536H410.573V30.456C410.573 33.464 410.013 35.704 408.893 37.176C407.805 38.648 405.837 39.384 402.989 39.384ZM423.612 35.592C425.02 34.536 426.204 33.224 427.164 31.656C428.124 30.088 428.892 27.944 429.468 25.224C430.044 22.504 430.348 19.064 430.38 14.904L430.476 11.256H443.004V35.352H446.364V46.056H442.62L442.188 39H427.788L427.356 46.056H423.612V35.592ZM438.06 35.352V14.952H434.46L434.364 15.96C434.332 20.248 434.06 23.704 433.548 26.328C433.036 28.92 432.38 30.872 431.58 32.184C430.78 33.496 429.788 34.552 428.604 35.352H438.06ZM449.92 11.256H455.056V13.464C456.56 11.736 458.32 10.872 460.336 10.872C462.864 10.872 464.544 11.96 465.376 14.136C466.24 16.28 466.672 18.664 466.672 21.288V28.008C466.672 31.4 466.144 34.152 465.088 36.264C464.064 38.344 462.288 39.384 459.76 39.384C458.128 39.384 456.56 38.568 455.056 36.936V48.12H449.92V11.256ZM458.752 35.352C459.936 35.352 460.688 34.76 461.008 33.576C461.36 32.36 461.536 30.504 461.536 28.008V21.288C461.536 19.24 461.344 17.672 460.96 16.584C460.576 15.464 459.776 14.904 458.56 14.904C457.376 14.904 456.208 15.384 455.056 16.344V34.104C456.176 34.936 457.408 35.352 458.752 35.352ZM470.91 42.024C472.83 42.024 474.142 41.88 474.846 41.592C475.582 41.304 475.95 40.76 475.95 39.96C475.95 39.576 475.598 37.88 474.894 34.872L469.326 11.256H474.51L478.254 31.992L481.854 11.256H487.038L480.414 40.536C479.966 42.488 479.022 43.88 477.582 44.712C476.142 45.544 474.126 45.96 471.534 45.96H470.91V42.024ZM490.139 11.256H501.323V14.952H495.275V39H490.139V11.256ZM504.061 11.256H508.381V29.928L516.733 11.256H520.765V39H516.541V20.184L508.237 39H504.061V11.256ZM526.142 11.256H529.934L536.078 28.296L542.27 11.256H546.062L546.35 39H542.03V22.44L536.894 36.264H535.31L530.174 22.536V39H525.854L526.142 11.256ZM551.405 11.256H555.725V29.928L564.077 11.256H568.109V39H563.885V20.184L555.581 39H551.405V11.256ZM584.311 11.256H589.447V22.92H596.023V11.256H601.159V39H596.023V26.664H589.447V39H584.311V11.256ZM611.334 39.384C610.278 39.384 609.318 39.08 608.454 38.472C607.622 37.864 606.966 37.064 606.486 36.072C606.006 35.08 605.766 34.04 605.766 32.952C605.766 30.776 606.23 29.016 607.158 27.672C608.086 26.296 609.27 25.208 610.71 24.408C612.15 23.608 614.15 22.696 616.71 21.672V19.704C616.71 17.88 616.518 16.6 616.134 15.864C615.782 15.096 615.046 14.712 613.926 14.712C611.974 14.712 610.998 16.024 610.998 18.648V20.04L605.91 19.848C605.974 16.776 606.678 14.52 608.022 13.08C609.366 11.608 611.446 10.872 614.262 10.872C616.918 10.872 618.838 11.608 620.022 13.08C621.238 14.52 621.846 16.712 621.846 19.656V32.328C621.846 34.408 622.006 36.632 622.326 39H617.622C617.27 37.176 617.046 35.816 616.95 34.92C616.566 36.168 615.894 37.224 614.934 38.088C614.006 38.952 612.806 39.384 611.334 39.384ZM613.35 34.968C614.022 34.968 614.678 34.712 615.318 34.2C615.958 33.656 616.422 33.144 616.71 32.664V24.792C615.334 25.56 614.262 26.232 613.494 26.808C612.758 27.352 612.134 27.992 611.622 28.728C611.142 29.464 610.902 30.344 610.902 31.368C610.902 32.52 611.11 33.416 611.526 34.056C611.942 34.664 612.55 34.968 613.35 34.968ZM626.348 42.024C628.268 42.024 629.58 41.88 630.284 41.592C631.02 41.304 631.388 40.76 631.388 39.96C631.388 39.576 631.036 37.88 630.332 34.872L624.764 11.256H629.948L633.692 31.992L637.292 11.256H642.476L635.852 40.536C635.404 42.488 634.46 43.88 633.02 44.712C631.58 45.544 629.564 45.96 626.972 45.96H626.348V42.024ZM645.576 11.256H650.712V22.968H652.152L657.384 11.256H662.664L656.856 24.696L662.76 39H657.384L652.152 26.04H650.712V39H645.576V11.256ZM670.49 39.384C669.434 39.384 668.474 39.08 667.61 38.472C666.778 37.864 666.122 37.064 665.642 36.072C665.162 35.08 664.922 34.04 664.922 32.952C664.922 30.776 665.386 29.016 666.314 27.672C667.242 26.296 668.426 25.208 669.866 24.408C671.306 23.608 673.306 22.696 675.866 21.672V19.704C675.866 17.88 675.674 16.6 675.29 15.864C674.938 15.096 674.202 14.712 673.082 14.712C671.13 14.712 670.154 16.024 670.154 18.648V20.04L665.066 19.848C665.13 16.776 665.834 14.52 667.178 13.08C668.522 11.608 670.602 10.872 673.418 10.872C676.074 10.872 677.994 11.608 679.178 13.08C680.394 14.52 681.002 16.712 681.002 19.656V32.328C681.002 34.408 681.162 36.632 681.482 39H676.778C676.426 37.176 676.202 35.816 676.106 34.92C675.722 36.168 675.05 37.224 674.09 38.088C673.162 38.952 671.962 39.384 670.49 39.384ZM672.506 34.968C673.178 34.968 673.834 34.712 674.474 34.2C675.114 33.656 675.578 33.144 675.866 32.664V24.792C674.49 25.56 673.418 26.232 672.65 26.808C671.914 27.352 671.29 27.992 670.778 28.728C670.298 29.464 670.058 30.344 670.058 31.368C670.058 32.52 670.266 33.416 670.682 34.056C671.098 34.664 671.706 34.968 672.506 34.968ZM686.08 11.256H689.872L696.016 28.296L702.208 11.256H706L706.288 39H701.968V22.44L696.832 36.264H695.248L690.112 22.536V39H685.792L686.08 11.256ZM711.342 11.256H715.662V29.928L724.014 11.256H728.046V39H723.822V20.184L715.518 39H711.342V11.256Z" fill="black"/>
</svg>
