<svg width="76" height="75" viewBox="0 0 76 75" fill="none" xmlns="http://www.w3.org/2000/svg">
<path d="M74 37.5C74 57.0812 57.9073 73 38 73C18.0927 73 2 57.0812 2 37.5C2 17.9188 18.0927 2 38 2C57.9073 2 74 17.9188 74 37.5Z" fill="#430340" stroke="#A252A2" stroke-width="4"/>
<path d="M39.7678 14.2322C38.7915 13.2559 37.2085 13.2559 36.2322 14.2322L20.3223 30.1421C19.346 31.1184 19.346 32.7014 20.3223 33.6777C21.2986 34.654 22.8816 34.654 23.8579 33.6777L38 19.5355L52.1421 33.6777C53.1184 34.654 54.7014 34.654 55.6777 33.6777C56.654 32.7014 56.654 31.1184 55.6777 30.1421L39.7678 14.2322ZM40.5 58L40.5 16H35.5L35.5 58H40.5Z" fill="#A252A2"/>
</svg>
